<?xml version="1.0" encoding="utf-8"?>
<!-- Generator: Adobe Illustrator 24.3.0, SVG Export Plug-In . SVG Version: 6.00 Build 0)  -->
<svg version="1.1" id="Capa_1" xmlns="http://www.w3.org/2000/svg" xmlns:xlink="http://www.w3.org/1999/xlink" x="0px" y="0px"
	 viewBox="0 0 2.8 3.11" style="enable-background:new 0 0 2.8 3.11;" xml:space="preserve">
<style type="text/css">
	.st0{fill:#676767;}
</style>
<g>
	<path class="st0" d="M0.63,0.15c0.02,0,0.04,0.01,0.05,0.03l0.54,0.93C1.23,1.13,1.22,1.16,1.2,1.18L1.04,1.27
		C0.95,1.33,0.85,1.35,0.75,1.35c-0.02,0-0.05,0-0.07,0c0,0,0,0,0,0c-0.02,0-0.03,0.02-0.02,0.04c0.09,0.16,0.21,0.34,0.37,0.54
		c0.16,0.19,0.31,0.33,0.43,0.44c0,0,0.01,0.01,0.02,0.01c0.01,0,0.02-0.01,0.03-0.02C1.51,2.2,1.56,2.07,1.66,1.96l0.13-0.13
		C1.8,1.82,1.82,1.81,1.83,1.81c0.01,0,0.03,0,0.04,0.01l0.77,0.75c0.02,0.02,0.02,0.05,0,0.07L2.51,2.79
		C2.4,2.91,2.24,2.96,2.09,2.96c-0.13,0-0.27-0.04-0.37-0.13C1.69,2.82,1.28,2.6,0.84,2.07C0.41,1.55,0.24,1.1,0.22,1.04
		C0.07,0.76,0.17,0.41,0.44,0.25L0.6,0.16C0.61,0.15,0.62,0.15,0.63,0.15 M0.63,0C0.6,0,0.55,0.01,0.53,0.03L0.37,0.12
		c-0.35,0.2-0.47,0.64-0.28,1C0.1,1.15,0.28,1.63,0.73,2.17c0.46,0.55,0.88,0.77,0.92,0.8c0.11,0.09,0.27,0.15,0.44,0.15
		c0.2,0,0.39-0.08,0.53-0.22l0.13-0.13c0.08-0.08,0.08-0.21,0-0.29L1.97,1.72C1.93,1.68,1.88,1.66,1.83,1.66
		c-0.05,0-0.11,0.02-0.15,0.06L1.56,1.86C1.49,1.93,1.43,2.01,1.4,2.1C1.31,2.02,1.22,1.92,1.14,1.82C1.05,1.72,0.97,1.6,0.89,1.49
		C0.97,1.47,1.04,1.44,1.11,1.4l0.16-0.09c0.1-0.06,0.13-0.18,0.07-0.28L0.8,0.1C0.77,0.04,0.7,0,0.63,0L0.63,0z"/>
</g>
</svg>
