<?xml version="1.0" encoding="utf-8"?>
<!-- Generator: Adobe Illustrator 24.3.0, SVG Export Plug-In . SVG Version: 6.00 Build 0)  -->
<svg version="1.1" id="Capa_1" xmlns="http://www.w3.org/2000/svg" xmlns:xlink="http://www.w3.org/1999/xlink" x="0px" y="0px"
	 viewBox="0 0 5.44 6.11" style="enable-background:new 0 0 5.44 6.11;" xml:space="preserve">
<style type="text/css">
	.st0{fill:#676767;}
	.st1{fill:none;stroke:#676767;stroke-width:0.15;stroke-miterlimit:10;}
	.st2{fill:none;stroke:#676767;stroke-width:0.2964;stroke-miterlimit:10;}
</style>
<g>
	<path class="st0" d="M-3.71-3.78c0.02,0,0.04,0.01,0.05,0.03l0.54,0.93c0.01,0.02,0.01,0.06-0.02,0.07l-0.16,0.1
		C-3.4-2.6-3.5-2.57-3.6-2.57c-0.02,0-0.05,0-0.07,0l0,0c-0.02,0-0.03,0.02-0.02,0.04C-3.6-2.39-3.48-2.2-3.32-2.01
		s0.31,0.33,0.43,0.44c0,0,0.01,0.01,0.02,0.01s0.02-0.01,0.03-0.02c0.01-0.14,0.06-0.27,0.17-0.38l0.12-0.14
		c0.01-0.01,0.02-0.02,0.04-0.02c0.01,0,0.03,0,0.04,0.01l0.77,0.75c0.02,0.02,0.02,0.05,0,0.07l-0.13,0.15
		C-1.95-1.02-2.1-0.96-2.25-0.96c-0.13,0-0.27-0.04-0.37-0.13C-2.66-1.11-3.06-1.32-3.5-1.85c-0.43-0.52-0.6-0.97-0.62-1.03
		c-0.15-0.28-0.06-0.63,0.22-0.8l0.16-0.09C-3.73-3.77-3.72-3.78-3.71-3.78 M-3.71-3.93c-0.03,0-0.08,0.01-0.1,0.03l-0.16,0.1
		c-0.35,0.2-0.47,0.64-0.28,1c0.01,0.03,0.19,0.51,0.63,1.05c0.46,0.55,0.88,0.77,0.92,0.8C-2.59-0.86-2.43-0.8-2.26-0.8
		c0.2,0,0.39-0.08,0.53-0.22l0.13-0.13c0.08-0.08,0.08-0.21,0-0.29L-2.37-2.2c-0.04-0.04-0.09-0.06-0.14-0.06S-2.62-2.24-2.66-2.2
		l-0.13,0.13C-2.85-2-2.91-1.91-2.94-1.82C-3.03-1.91-3.12-2-3.2-2.1c-0.09-0.11-0.18-0.22-0.25-0.34c0.08-0.01,0.15-0.04,0.22-0.08
		l0.16-0.1c0.1-0.05,0.13-0.18,0.08-0.27l-0.55-0.93C-3.57-3.89-3.64-3.93-3.71-3.93L-3.71-3.93z"/>
</g>
<path class="st1" d="M955.78,2301.61c-0.59,0-1.07,0.48-1.07,1.07c0,0.95,1.07,1.79,1.07,1.79s1.07-0.83,1.07-1.79
	C956.85,2302.09,956.37,2301.61,955.78,2301.61z M955.78,2303.28c-0.33,0-0.6-0.27-0.6-0.6s0.27-0.6,0.6-0.6s0.6,0.27,0.6,0.6
	S956.11,2303.28,955.78,2303.28z"/>
<path class="st2" d="M2.72,0.22c-1.17,0-2.11,0.95-2.11,2.11c0,1.88,2.11,3.54,2.11,3.54s2.11-1.64,2.11-3.54
	C4.83,1.17,3.88,0.22,2.72,0.22z M2.72,3.5c-0.65,0-1.19-0.53-1.19-1.19s0.53-1.19,1.19-1.19S3.9,1.69,3.9,2.34S3.37,3.5,2.72,3.5z"
	/>
</svg>
