<?xml version="1.0" encoding="utf-8"?>
<!-- Generator: Adobe Illustrator 24.3.0, SVG Export Plug-In . SVG Version: 6.00 Build 0)  -->
<svg version="1.1" id="Capa_1" xmlns="http://www.w3.org/2000/svg" xmlns:xlink="http://www.w3.org/1999/xlink" x="0px" y="0px"
	 viewBox="0 0 2.76 2.75" style="enable-background:new 0 0 2.76 2.75;" xml:space="preserve">
<style type="text/css">
	.st0{fill:#676767;}
	.st1{fill:none;stroke:#676767;stroke-width:0.15;stroke-linecap:round;stroke-linejoin:round;stroke-miterlimit:10;}
</style>
<g>
	<path class="st0" d="M0.54-3.5c0.02,0,0.04,0.01,0.05,0.03l0.54,0.93c0.01,0.02,0.01,0.06-0.02,0.07L0.95-2.38
		C0.86-2.33,0.75-2.3,0.65-2.3c-0.02,0-0.05,0-0.07,0c0,0,0,0,0,0c-0.02,0-0.03,0.02-0.02,0.04c0.09,0.16,0.21,0.34,0.37,0.54
		C1.09-1.55,1.24-1.4,1.37-1.29c0,0,0.01,0.01,0.02,0.01c0.01,0,0.02-0.01,0.03-0.02c0.01-0.14,0.06-0.27,0.17-0.38L1.7-1.82
		c0.01-0.01,0.02-0.02,0.04-0.02c0.01,0,0.03,0,0.04,0.01l0.77,0.75c0.02,0.02,0.02,0.05,0,0.07L2.42-0.87
		C2.3-0.75,2.15-0.69,2-0.69c-0.13,0-0.27-0.04-0.37-0.13C1.6-0.84,1.19-1.05,0.75-1.58C0.32-2.1,0.15-2.56,0.13-2.61
		C-0.02-2.89,0.07-3.24,0.35-3.4L0.51-3.5C0.52-3.5,0.53-3.5,0.54-3.5 M0.54-3.65c-0.03,0-0.08,0.01-0.1,0.03L0.28-3.53
		c-0.35,0.2-0.47,0.64-0.28,1c0.01,0.03,0.19,0.51,0.63,1.05c0.46,0.55,0.88,0.77,0.92,0.8C1.66-0.6,1.83-0.54,2-0.54
		c0.2,0,0.39-0.08,0.53-0.22l0.13-0.13c0.08-0.08,0.08-0.21,0-0.29L1.88-1.93C1.84-1.97,1.79-1.99,1.74-1.99
		c-0.05,0-0.11,0.02-0.15,0.06L1.47-1.8C1.4-1.73,1.34-1.64,1.31-1.55C1.22-1.64,1.13-1.73,1.05-1.83C0.96-1.94,0.87-2.05,0.8-2.17
		c0.08-0.02,0.16-0.04,0.23-0.09l0.16-0.09c0.1-0.06,0.13-0.18,0.07-0.28L0.71-3.55C0.68-3.62,0.61-3.65,0.54-3.65L0.54-3.65z"/>
</g>
<g>
	<circle class="st1" cx="1.39" cy="1.38" r="1.28"/>
	<line class="st1" x1="1.4" y1="1.38" x2="1.42" y2="2.22"/>
	<line class="st1" x1="1.39" y1="1.38" x2="1.01" y2="1.05"/>
</g>
</svg>
