<?xml version="1.0" encoding="utf-8"?>
<!-- Generator: Adobe Illustrator 24.3.0, SVG Export Plug-In . SVG Version: 6.00 Build 0)  -->
<svg version="1.1" id="Capa_1" xmlns="http://www.w3.org/2000/svg" xmlns:xlink="http://www.w3.org/1999/xlink" x="0px" y="0px"
	 viewBox="0 0 2.8 2.1" style="enable-background:new 0 0 2.8 2.1;" xml:space="preserve">
<style type="text/css">
	.st0{fill:#676767;}
	.st1{fill:none;stroke:#676767;stroke-width:0.15;stroke-miterlimit:10;}
</style>
<g>
	<path class="st0" d="M0.56-3.83c0.02,0,0.04,0.01,0.05,0.03l0.54,0.93C1.16-2.85,1.15-2.81,1.13-2.8L0.97-2.71
		C0.87-2.65,0.77-2.63,0.67-2.63c-0.02,0-0.05,0-0.07,0c0,0,0,0,0,0c-0.02,0-0.03,0.02-0.02,0.04c0.09,0.16,0.21,0.34,0.37,0.54
		c0.16,0.19,0.31,0.33,0.43,0.44c0,0,0.01,0.01,0.02,0.01c0.01,0,0.02-0.01,0.03-0.02c0.01-0.14,0.06-0.27,0.17-0.38l0.13-0.13
		c0.01-0.01,0.02-0.02,0.04-0.02c0.01,0,0.03,0,0.04,0.01L2.57-1.4c0.02,0.02,0.02,0.05,0,0.07L2.44-1.19
		C2.32-1.07,2.17-1.01,2.02-1.01c-0.13,0-0.27-0.04-0.37-0.13C1.61-1.16,1.21-1.38,0.77-1.91c-0.43-0.52-0.6-0.97-0.62-1.03
		C0-3.21,0.09-3.57,0.37-3.73l0.16-0.09C0.54-3.83,0.55-3.83,0.56-3.83 M0.56-3.98c-0.03,0-0.08,0.01-0.1,0.03L0.3-3.86
		c-0.35,0.2-0.47,0.64-0.28,1c0.01,0.03,0.19,0.51,0.63,1.05c0.46,0.55,0.88,0.77,0.92,0.8c0.11,0.09,0.27,0.15,0.44,0.15
		c0.2,0,0.39-0.08,0.53-0.22l0.13-0.13c0.08-0.08,0.08-0.21,0-0.29L1.9-2.26C1.86-2.29,1.81-2.31,1.76-2.31
		c-0.05,0-0.11,0.02-0.15,0.06L1.48-2.12C1.42-2.05,1.36-1.97,1.33-1.88C1.24-1.96,1.15-2.06,1.07-2.15
		C0.98-2.26,0.89-2.38,0.82-2.49C0.9-2.51,0.97-2.54,1.04-2.58L1.2-2.67c0.1-0.06,0.13-0.18,0.07-0.28L0.73-3.88
		C0.7-3.94,0.63-3.98,0.56-3.98L0.56-3.98z"/>
</g>
<g>
	<path class="st1" d="M2.55,1.99l-2.24,0c-0.14,0-0.22-0.08-0.22-0.19l0-1.49c0-0.11,0.09-0.19,0.19-0.19l2.24,0
		c0.11,0,0.19,0.09,0.19,0.19l0,1.49C2.71,1.9,2.63,1.99,2.55,1.99z"/>
	<path class="st1" d="M0.15,0.22c0.03,0.01,0.96,0.93,1.2,1.17c0.03,0.03,0.08,0.03,0.11,0l1.17-1.2"/>
</g>
</svg>
